<svg width="11" height="10" viewBox="0 0 11 10" fill="none" xmlns="http://www.w3.org/2000/svg">
<path d="M0.279 9.47784C0.218105 9.47764 0.158949 9.45751 0.11056 9.42054C0.0621711 9.38357 0.0272064 9.33179 0.0110016 9.27309C-0.00520315 9.21439 -0.001758 9.152 0.0208113 9.09544C0.0433807 9.03888 0.0838347 8.99126 0.136 8.95984C0.814506 8.55446 1.33393 7.92918 1.608 7.18784C1.1254 6.84563 0.728928 6.39595 0.449871 5.87428C0.170813 5.3526 0.0168057 4.77322 0 4.18184C0.000914431 3.60355 0.148151 3.0349 0.428 2.52884C0.715142 2.01155 1.10637 1.55938 1.577 1.20084C2.65134 0.400509 3.96051 -0.0214614 5.3 0.000840704C6.63677 -0.0196886 7.94284 0.402192 9.015 1.20084C9.48579 1.55881 9.87706 2.01069 10.164 2.52784C10.4442 3.03265 10.5912 3.60049 10.5912 4.17784C10.5912 4.75519 10.4442 5.32303 10.164 5.82784C9.87754 6.3473 9.48627 6.80156 9.015 7.16184C7.94175 7.96133 6.63413 8.38326 5.296 8.36184C4.72874 8.3629 4.16373 8.29063 3.615 8.14684C3.22312 8.40745 2.8157 8.64389 2.395 8.85484C1.74519 9.21726 1.02256 9.42978 0.28 9.47684L0.279 9.47784ZM5.3 0.557841C2.683 0.557841 0.557 2.18384 0.557 4.18184C0.5783 4.71811 0.729254 5.24123 0.996935 5.70641C1.26462 6.17159 1.64105 6.56496 2.094 6.85284C2.14067 6.88569 2.17615 6.93207 2.19564 6.98571C2.21513 7.03936 2.2177 7.09769 2.203 7.15284C2.0353 7.73278 1.7335 8.26512 1.322 8.70684C2.05964 8.43123 2.76004 8.06473 3.407 7.61584C3.44091 7.5925 3.47959 7.57699 3.52023 7.57041C3.56087 7.56384 3.60246 7.56638 3.642 7.57784C4.18159 7.72898 4.73965 7.80404 5.3 7.80084C7.913 7.80084 10.039 6.17484 10.039 4.17684C10.039 2.17884 7.909 0.557841 5.3 0.557841Z" fill="#282F36" fill-opacity="0.8"/>
</svg>
